<svg width="171" height="36" viewBox="0 0 171 36" fill="none" xmlns="http://www.w3.org/2000/svg">
<path fill-rule="evenodd" clip-rule="evenodd" d="M27.8333 18C27.8333 25.0877 22.0877 30.8333 15 30.8333C7.91234 30.8333 2.16666 25.0877 2.16666 18C2.16666 10.9123 7.91234 5.16666 15 5.16666C22.0877 5.16666 27.8333 10.9123 27.8333 18ZM30 18C30 26.2843 23.2843 33 15 33C6.71573 33 0 26.2843 0 18C0 9.71573 6.71573 3 15 3C23.2843 3 30 9.71573 30 18ZM23.2759 11.2759C23.2759 12.1329 22.5812 12.8276 21.7242 12.8276C20.8672 12.8276 20.1725 12.1329 20.1725 11.2759C20.1725 10.4189 20.8672 9.72418 21.7242 9.72418C22.5812 9.72418 23.2759 10.4189 23.2759 11.2759ZM10.4879 19.209C11.1556 21.7009 13.717 23.1797 16.2089 22.512C18.7008 21.8443 20.1796 19.2829 19.5119 16.791C18.8442 14.2991 16.2828 12.8203 13.7909 13.488C11.299 14.1557 9.82015 16.7171 10.4879 19.209ZM8.39503 19.7698C9.37244 23.4175 13.1219 25.5823 16.7696 24.6049C20.4174 23.6274 22.5821 19.878 21.6047 16.2302C20.6273 12.5825 16.8779 10.4177 13.2301 11.3952C9.58236 12.3726 7.41762 16.122 8.39503 19.7698Z" fill="url(#paint0_linear_3_4)"/>
<path d="M39.8661 28V8.20757H48.0093C49.2534 8.20757 50.3467 8.46205 51.2892 8.97099C52.2505 9.46109 52.9951 10.1585 53.5229 11.0633C54.0696 11.9681 54.3429 13.0426 54.3429 14.2867V14.6825C54.3429 15.9078 54.0601 16.9822 53.4946 17.9059C52.948 18.8107 52.194 19.5175 51.2327 20.0265C50.2902 20.5166 49.2157 20.7616 48.0093 20.7616H43.5984V28H39.8661ZM43.5984 17.3686H47.6417C48.5277 17.3686 49.244 17.1236 49.7906 16.6335C50.3373 16.1434 50.6106 15.4742 50.6106 14.626V14.3432C50.6106 13.495 50.3373 12.8258 49.7906 12.3357C49.244 11.8456 48.5277 11.6006 47.6417 11.6006H43.5984V17.3686ZM56.1953 28V13.9757H59.758V28H56.1953ZM57.9767 12.3357C57.3358 12.3357 56.7891 12.1284 56.3367 11.7137C55.9032 11.299 55.6864 10.7523 55.6864 10.0737C55.6864 9.39512 55.9032 8.84847 56.3367 8.43377C56.7891 8.01907 57.3358 7.81172 57.9767 7.81172C58.6364 7.81172 59.1831 8.01907 59.6166 8.43377C60.0501 8.84847 60.2669 9.39512 60.2669 10.0737C60.2669 10.7523 60.0501 11.299 59.6166 11.7137C59.1831 12.1284 58.6364 12.3357 57.9767 12.3357ZM69.4457 28.3958C68.0885 28.3958 66.8538 28.1131 65.7417 27.5476C64.6484 26.9821 63.7813 26.1621 63.1404 25.0877C62.4995 24.0132 62.179 22.7126 62.179 21.1857V20.7899C62.179 19.2631 62.4995 17.9624 63.1404 16.888C63.7813 15.8135 64.6484 14.9935 65.7417 14.428C66.8538 13.8626 68.0885 13.5798 69.4457 13.5798C70.784 13.5798 71.9339 13.8154 72.8952 14.2867C73.8565 14.7579 74.6294 15.4082 75.2137 16.2376C75.8169 17.0482 76.2128 17.9718 76.4013 19.0086L72.9517 19.7437C72.8763 19.1782 72.7067 18.6693 72.4428 18.2169C72.1789 17.7645 71.8019 17.4063 71.3118 17.1424C70.8406 16.8785 70.2468 16.7466 69.5305 16.7466C68.8142 16.7466 68.1639 16.9068 67.5795 17.2273C67.014 17.5289 66.5616 17.9907 66.2223 18.6127C65.9019 19.2159 65.7417 19.9605 65.7417 20.8465V21.1292C65.7417 22.0151 65.9019 22.7691 66.2223 23.3912C66.5616 23.9944 67.014 24.4562 67.5795 24.7767C68.1639 25.0783 68.8142 25.2291 69.5305 25.2291C70.6049 25.2291 71.4155 24.9557 71.9621 24.4091C72.5276 23.8436 72.8858 23.1084 73.0366 22.2036L76.4861 23.0236C76.2411 24.0227 75.8169 24.9369 75.2137 25.7663C74.6294 26.5768 73.8565 27.2177 72.8952 27.689C71.9339 28.1602 70.784 28.3958 69.4457 28.3958ZM83.4795 28C82.5559 28 81.8019 27.7173 81.2175 27.1518C80.652 26.5674 80.3693 25.7946 80.3693 24.8332V16.9162H76.8632V13.9757H80.3693V9.62132H83.9319V13.9757H87.7773V16.9162H83.9319V24.2112C83.9319 24.7767 84.1958 25.0594 84.7236 25.0594H87.438V28H83.4795ZM96.3298 28.3958C94.9349 28.3958 93.6814 28.1131 92.5692 27.5476C91.4571 26.9821 90.5806 26.1621 89.9397 25.0877C89.2988 24.0132 88.9783 22.722 88.9783 21.214V20.7616C88.9783 19.2536 89.2988 17.9624 89.9397 16.888C90.5806 15.8135 91.4571 14.9935 92.5692 14.428C93.6814 13.8626 94.9349 13.5798 96.3298 13.5798C97.7247 13.5798 98.9782 13.8626 100.09 14.428C101.202 14.9935 102.079 15.8135 102.72 16.888C103.361 17.9624 103.681 19.2536 103.681 20.7616V21.214C103.681 22.722 103.361 24.0132 102.72 25.0877C102.079 26.1621 101.202 26.9821 100.09 27.5476C98.9782 28.1131 97.7247 28.3958 96.3298 28.3958ZM96.3298 25.2291C97.4231 25.2291 98.3279 24.8803 99.0442 24.1829C99.7605 23.4666 100.119 22.4487 100.119 21.1292V20.8465C100.119 19.527 99.7605 18.5185 99.0442 17.821C98.3467 17.1047 97.4419 16.7466 96.3298 16.7466C95.2365 16.7466 94.3317 17.1047 93.6154 17.821C92.8991 18.5185 92.541 19.527 92.541 20.8465V21.1292C92.541 22.4487 92.8991 23.4666 93.6154 24.1829C94.3317 24.8803 95.2365 25.2291 96.3298 25.2291ZM105.443 21.0444V20.592C105.443 19.1217 105.735 17.8682 106.319 16.8314C106.904 15.7758 107.677 14.9747 108.638 14.428C109.618 13.8626 110.683 13.5798 111.833 13.5798C113.115 13.5798 114.086 13.806 114.745 14.2584C115.405 14.7108 115.886 15.182 116.187 15.6721H116.696V13.9757H120.202V30.4882C120.202 31.4495 119.92 32.213 119.354 32.7785C118.789 33.3628 118.035 33.655 117.092 33.655H107.705V30.5447H115.848C116.376 30.5447 116.64 30.262 116.64 29.6965V26.049H116.131C115.942 26.3506 115.678 26.6617 115.339 26.9821C115 27.2837 114.547 27.5382 113.982 27.7455C113.416 27.9529 112.7 28.0565 111.833 28.0565C110.683 28.0565 109.618 27.7832 108.638 27.2366C107.677 26.6711 106.904 25.87 106.319 24.8332C105.735 23.7776 105.443 22.5147 105.443 21.0444ZM112.851 24.9463C113.944 24.9463 114.858 24.5976 115.594 23.9001C116.329 23.2027 116.696 22.2225 116.696 20.9596V20.6768C116.696 19.395 116.329 18.4148 115.594 17.7362C114.877 17.0388 113.963 16.69 112.851 16.69C111.758 16.69 110.843 17.0388 110.108 17.7362C109.373 18.4148 109.006 19.395 109.006 20.6768V20.9596C109.006 22.2225 109.373 23.2027 110.108 23.9001C110.843 24.5976 111.758 24.9463 112.851 24.9463ZM123.304 28V13.9757H126.81V15.559H127.319C127.526 14.9935 127.866 14.5788 128.337 14.3149C128.827 14.0511 129.393 13.9191 130.033 13.9191H131.73V17.0859H129.977C129.072 17.0859 128.328 17.3309 127.743 17.821C127.159 18.2923 126.867 19.0274 126.867 20.0265V28H123.304ZM137.689 28.3958C136.69 28.3958 135.795 28.2262 135.003 27.8869C134.212 27.5288 133.58 27.0198 133.109 26.3601C132.656 25.6815 132.43 24.8615 132.43 23.9001C132.43 22.9388 132.656 22.1377 133.109 21.4968C133.58 20.837 134.221 20.3469 135.031 20.0265C135.861 19.6872 136.803 19.5175 137.859 19.5175H141.704V18.7258C141.704 18.0661 141.497 17.5289 141.082 17.1142C140.668 16.6806 140.008 16.4638 139.103 16.4638C138.217 16.4638 137.557 16.6712 137.124 17.0859C136.69 17.4817 136.408 18.0001 136.276 18.641L132.996 17.5383C133.222 16.822 133.58 16.1717 134.07 15.5873C134.579 14.9841 135.248 14.5034 136.078 14.1453C136.926 13.7683 137.953 13.5798 139.16 13.5798C141.007 13.5798 142.468 14.0416 143.542 14.9653C144.617 15.8889 145.154 17.2273 145.154 18.9803V24.2112C145.154 24.7767 145.418 25.0594 145.946 25.0594H147.077V28H144.702C144.004 28 143.429 27.8304 142.977 27.4911C142.524 27.1518 142.298 26.6994 142.298 26.1339V26.1056H141.761C141.686 26.3318 141.516 26.6334 141.252 27.0104C140.988 27.3685 140.573 27.689 140.008 27.9717C139.442 28.2545 138.67 28.3958 137.689 28.3958ZM138.311 25.5118C139.31 25.5118 140.121 25.2385 140.743 24.6918C141.384 24.1263 141.704 23.3818 141.704 22.4581V22.1754H138.113C137.454 22.1754 136.935 22.3167 136.558 22.5995C136.181 22.8822 135.993 23.2781 135.993 23.787C135.993 24.296 136.191 24.7107 136.587 25.0311C136.982 25.3516 137.557 25.5118 138.311 25.5118ZM148.833 28V13.9757H152.339V15.5025H152.848C153.093 15.0312 153.499 14.626 154.064 14.2867C154.63 13.9285 155.374 13.7495 156.298 13.7495C157.297 13.7495 158.098 13.9474 158.701 14.3432C159.304 14.7202 159.766 15.2197 160.087 15.8418H160.596C160.916 15.2386 161.368 14.7391 161.953 14.3432C162.537 13.9474 163.366 13.7495 164.441 13.7495C165.308 13.7495 166.09 13.938 166.788 14.3149C167.504 14.6731 168.07 15.2292 168.484 15.9832C168.918 16.7183 169.135 17.6514 169.135 18.7824V28H165.572V19.0369C165.572 18.264 165.374 17.6891 164.978 17.3121C164.582 16.9162 164.026 16.7183 163.31 16.7183C162.499 16.7183 161.868 16.9822 161.416 17.51C160.982 18.019 160.765 18.7541 160.765 19.7155V28H157.203V19.0369C157.203 18.264 157.005 17.6891 156.609 17.3121C156.213 16.9162 155.657 16.7183 154.941 16.7183C154.13 16.7183 153.499 16.9822 153.046 17.51C152.613 18.019 152.396 18.7541 152.396 19.7155V28H148.833Z" fill="white"/>
<defs>
<linearGradient id="paint0_linear_3_4" x1="15" y1="3" x2="15" y2="33" gradientUnits="userSpaceOnUse">
<stop stop-color="#877EFF"/>
<stop offset="0.461458" stop-color="#685DFF"/>
<stop offset="1" stop-color="#3121FF"/>
</linearGradient>
</defs>
</svg>
