<svg width="18" height="18" viewBox="0 0 18 18" fill="none" xmlns="http://www.w3.org/2000/svg">
<path fill-rule="evenodd" clip-rule="evenodd" d="M14.2864 1.35903C13.3114 1.53247 11.997 1.96885 10.1522 2.58376L5.97618 3.97578C4.49282 4.47023 3.41842 4.8289 2.65955 5.15167C1.86616 5.48911 1.58393 5.72432 1.49226 5.882C1.20993 6.36765 1.20993 6.96746 1.49226 7.45311C1.58393 7.61079 1.86616 7.846 2.65955 8.18345C3.41842 8.50621 4.49282 8.86488 5.97618 9.35933C5.9996 9.36714 6.02273 9.37484 6.04557 9.38243C6.45072 9.5172 6.76568 9.62197 7.03662 9.80335C7.29766 9.9781 7.5219 10.2023 7.69665 10.4634C7.87803 10.7343 7.98281 11.0493 8.11757 11.4544C8.12517 11.4773 8.13286 11.5004 8.14067 11.5238C8.63512 13.0072 8.99379 14.0816 9.31655 14.8404C9.65399 15.6338 9.88921 15.9161 10.0469 16.0077C10.5325 16.2901 11.1323 16.2901 11.618 16.0077C11.7757 15.9161 12.0109 15.6338 12.3483 14.8404C12.6711 14.0816 13.0298 13.0072 13.5242 11.5238L14.9162 7.34777C15.5312 5.50303 15.9675 4.18856 16.141 3.21358C16.3152 2.23395 16.1821 1.81783 15.9321 1.56788C15.6822 1.31793 15.266 1.18476 14.2864 1.35903ZM14.0622 0.0983079C15.1473 -0.0947333 16.1247 -0.0504894 16.8376 0.662425C17.5505 1.37534 17.5947 2.35268 17.4017 3.43785C17.2098 4.51646 16.7419 5.92012 16.1495 7.69724L14.7288 11.9595C14.2467 13.4057 13.8721 14.5295 13.5267 15.3416C13.1935 16.125 12.8235 16.7881 12.2616 17.1148C11.378 17.6284 10.2868 17.6284 9.4033 17.1148C8.84135 16.7881 8.47139 16.125 8.13819 15.3416C7.79276 14.5295 7.4182 13.4058 6.93615 11.9596L6.92587 11.9288C6.75699 11.4221 6.7055 11.2847 6.63257 11.1757C6.55095 11.0538 6.44621 10.9491 6.32428 10.8674C6.21533 10.7945 6.0779 10.743 5.57124 10.5741L5.54038 10.5638C4.09422 10.0818 2.97053 9.70723 2.15837 9.36181C1.37497 9.02861 0.711923 8.65864 0.385231 8.09669C-0.128411 7.21316 -0.12841 6.12195 0.385232 5.23842C0.711924 4.67647 1.37497 4.3065 2.15837 3.97331C2.97054 3.62788 4.09424 3.25331 5.54043 2.77125L9.80278 1.35047C11.5799 0.758083 12.9835 0.290183 14.0622 0.0983079ZM13.9006 3.60443C14.1492 3.85585 14.147 4.26123 13.8956 4.50988L10.4809 7.88693C10.2295 8.13558 9.82408 8.13333 9.57543 7.88191C9.32679 7.6305 9.32903 7.22511 9.58045 6.97647L12.9951 3.59941C13.2466 3.35077 13.6519 3.35302 13.9006 3.60443Z" fill="#877EFF" fill-opacity="0.937255"/>
</svg>
